<svg t="1753753930622" class="icon" viewBox="0 0 1024 1024" version="1.1" xmlns="http://www.w3.org/2000/svg" p-id="11567" width="200" height="200"><path d="M988.27907 944.620155c0 43.658915-35.72093 79.379845-79.379845 79.379845H115.100775c-43.658915 0-79.379845-35.72093-79.379845-79.379845v-762.046512c0-43.658915 35.72093-79.379845 79.379845-79.379845h793.79845c43.658915 0 79.379845 35.72093 79.379845 79.379845v762.046512z" fill="#263740" p-id="11568"></path><path d="M908.899225 103.193798h-47.627907c43.658915 0 79.379845 35.72093 79.379845 79.379845v762.046512c0 43.658915-35.72093 79.379845-79.379845 79.379845h47.627907c43.658915 0 79.379845-35.72093 79.379845-79.379845v-762.046512c0-43.658915-35.72093-79.379845-79.379845-79.379845z" fill="#1E2C33" p-id="11569"></path><path d="M178.604651 944.620155c-35.01445 0-63.503876-28.489426-63.503876-63.503876v-206.387597c0-17.511194 14.240744-31.751938 31.751938-31.751938s31.751938 14.240744 31.751938 31.751938v206.387597h666.790698v-206.387597c0-17.511194 14.240744-31.751938 31.751938-31.751938s31.751938 14.240744 31.751938 31.751938v206.387597c0 35.01445-28.489426 63.503876-63.503876 63.503876H178.604651z" fill="#1E2C33" p-id="11570"></path><path d="M845.395349 928.744186H178.604651c-26.266791 0-47.627907-21.361116-47.627907-47.627907v-206.387597a15.875969 15.875969 0 0 1 31.751938 0v206.387597c0 8.763535 7.120372 15.875969 15.875969 15.875969h666.790698a15.875969 15.875969 0 0 0 15.875969-15.875969v-206.387597a15.875969 15.875969 0 0 1 31.751938 0v206.387597c0 26.266791-21.361116 47.627907-47.627907 47.627907z" fill="#F5F5F5" p-id="11571"></path><path d="M202.418605 555.658915c-17.511194 0-31.751938-14.240744-31.751938-31.751938v-166.697675c0-17.511194 14.240744-31.751938 31.751938-31.751938h214.325581c17.511194 0 31.751938 14.240744 31.751938 31.751938v166.697675c0 17.511194-14.240744 31.751938-31.751938 31.751938H202.418605z" fill="#1E2C33" p-id="11572"></path><path d="M432.620155 523.906977a15.875969 15.875969 0 0 1-15.875969 15.875969H202.418605a15.875969 15.875969 0 0 1-15.875969-15.875969v-166.697675a15.875969 15.875969 0 0 1 15.875969-15.875969h214.325581a15.875969 15.875969 0 0 1 15.875969 15.875969v166.697675z" fill="#F5F5F5" p-id="11573"></path><path d="M607.255814 555.658915c-17.511194 0-31.751938-14.240744-31.751938-31.751938v-166.697675c0-17.511194 14.240744-31.751938 31.751938-31.751938h214.325581c17.511194 0 31.751938 14.240744 31.751938 31.751938v166.697675c0 17.511194-14.240744 31.751938-31.751938 31.751938H607.255814z" fill="#1E2C33" p-id="11574"></path><path d="M837.457364 523.906977a15.875969 15.875969 0 0 1-15.875969 15.875969H607.255814a15.875969 15.875969 0 0 1-15.875969-15.875969v-166.697675a15.875969 15.875969 0 0 1 15.875969-15.875969h214.325581a15.875969 15.875969 0 0 1 15.875969 15.875969v166.697675z" fill="#F5F5F5" p-id="11575"></path><path d="M714.418605 440.55814m-23.813954 0a23.813953 23.813953 0 1 0 47.627907 0 23.813953 23.813953 0 1 0-47.627907 0Z" fill="#808080" p-id="11576"></path><path d="M309.581395 440.55814m-23.813953 0a23.813953 23.813953 0 1 0 47.627907 0 23.813953 23.813953 0 1 0-47.627907 0Z" fill="#808080" p-id="11577"></path><path d="M559.627907 103.193798h-31.751938c0-29.402295-31.077209-55.565891-55.565891-55.565891v-31.751938c40.380527 0 87.317829 38.142016 87.317829 87.317829z" fill="#E6E6E6" p-id="11578"></path><path d="M448.496124 31.751938m-31.751938 0a31.751938 31.751938 0 1 0 63.503876 0 31.751938 31.751938 0 1 0-63.503876 0Z" fill="#E16B5A" p-id="11579"></path></svg>